# File created by Blade
# Date/Time:  Tue Jan 27 19:18:50 2015
#---------------------------------------------------------
:version 1.10
:name HOM
:units
  mass 1.0
  length 1.000000
  angle deg
:documentation
     Acclaim Skeleton File
:root
   axis xyz
   order TX TY TZ RX RY RZ
   position 0.000000 0.000000 0.000000
   orientation 0 0 0
:bonedata
   begin
      id 1
      name Spine_dum
      direction 0.000000 1.000000 0.000000
      length 6.116652
      axis 0.0 0.0 0.0 xyz
   end
   begin
      id 2
      name LeftUpLeg_dum
      direction 1.000000 0.000000 0.000000
      length 4.711765
      axis 0.0 0.0 0.0 xyz
   end
   begin
      id 3
      name RightUpLeg_dum
      direction -1.000000 0.000000 0.000000
      length 4.711765
      axis 0.0 0.0 0.0 xyz
   end
   begin
      id 4
      name Spine
      direction 0.000000 1.000000 0.000000
      length 0.000000
      axis 0.0 0.0 0.0 xyz
      dof rx ry rz
   end
   begin
      id 5
      name Spine_dum1
      direction 0.000000 1.000000 0.000000
      length 15.225563
      axis 0.0 0.0 0.0 xyz
   end
   begin
      id 6
      name Spine_dum2
      direction 0.000000 1.000000 0.000000
      length 8.977654
      axis 0.0 0.0 0.0 xyz
   end
   begin
      id 7
      name Spine_dum3
      direction 0.000000 1.000000 0.000000
      length 8.977654
      axis 0.0 0.0 0.0 xyz
   end
   begin
      id 8
      name Head
      direction 0.000000 1.000000 0.000000
      length 4.527550
      axis 0.0 0.0 0.0 xyz
      dof rx ry rz
   end
   begin
      id 9
      name LeftShoulder
      direction 1.000000 0.000000 0.000000
      length 7.110130
      axis 0.0 0.0 -90.0 xyz
      dof rx ry rz
   end
   begin
      id 10
      name LeftArm
      direction 1.000000 0.000000 0.000000
      length 10.398341
      axis 0.0 0.0 -90.0 xyz
      dof rx ry rz
   end
   begin
      id 11
      name LeftForeArm
      direction 1.000000 0.000000 0.000000
      length 8.888997
      axis 0.0 0.0 -90.0 xyz
      dof ry rz rx
   end
   begin
      id 12
      name LeftHand
      direction 0.000000 0.000000 0.000000
      length 0.000000
      axis 0.0 0.0 -90.0 xyz
      dof rx ry rz
   end
   begin
      id 13
      name LeftHand_dum1
      direction 0.000000 0.000000 0.000000
      length 0.000000
      axis 0.0 0.0 -90.0 xyz
   end
   begin
      id 14
      name LeftHand_dum2
      direction 1.000000 0.000000 0.000000
      length 3.937000
      axis 0.0 0.0 -90.0 xyz
   end
   begin
      id 15
      name LeftHandThumb1
      direction 0.000000 0.000000 1.000000
      length 3.937000
      axis 0.0 0.0 -90.0 xyz
      dof rx rz ry
   end
   begin
      id 16
      name RightShoulder
      direction -1.000000 0.000000 0.000000
      length 7.110130
      axis 0.0 0.0 90.0 xyz
      dof rx ry rz
   end
   begin
      id 17
      name RightArm
      direction -1.000000 0.000000 0.000000
      length 10.398341
      axis 0.0 0.0 90.0 xyz
      dof rx ry rz
   end
   begin
      id 18
      name RightForeArm
      direction -1.000000 0.000000 0.000000
      length 8.888997
      axis 0.0 0.0 90.0 xyz
      dof ry rz rx
   end
   begin
      id 19
      name RightHand
      direction 0.000000 0.000000 0.000000
      length 0.000000
      axis 0.0 0.0 90.0 xyz
      dof rx ry rz
   end
   begin
      id 20
      name RightHand_dum1
      direction 0.000000 0.000000 0.000000
      length 0.000000
      axis 0.0 0.0 90.0 xyz
   end
   begin
      id 21
      name RightHand_dum2
      direction -1.000000 0.000000 0.000000
      length 3.937000
      axis 0.0 0.0 90.0 xyz
   end
   begin
      id 22
      name RightHandThumb1
      direction 0.000000 0.000000 1.000000
      length 3.937000
      axis 0.0 0.0 90.0 xyz
      dof rx rz ry
   end
   begin
      id 23
      name LeftUpLeg
      direction 0.000000 -1.000000 0.000000
      length 15.510451
      axis 0.0 0.0 0.0 xyz
      dof rx ry rz
   end
   begin
      id 24
      name LeftLeg
      direction 0.000000 -1.000000 0.000000
      length 14.858061
      axis 0.0 0.0 0.0 xyz
      dof rx ry rz
   end
   begin
      id 25
      name LeftFoot
      direction 0.000000 -0.258819 0.965926
      length 5.128852
      axis 15.0 0.0 0.0 xyz
      dof rx ry rz
   end
   begin
      id 26
      name LeftToeBase
      direction 0.000000 0.000000 1.000000
      length 2.952750
      axis 0.0 0.0 0.0 xyz
      dof rx ry rz
   end
   begin
      id 27
      name RightUpLeg
      direction 0.000000 -1.000000 0.000000
      length 15.510451
      axis 0.0 0.0 0.0 xyz
      dof rx ry rz
   end
   begin
      id 28
      name RightLeg
      direction 0.000000 -1.000000 0.000000
      length 14.858061
      axis 0.0 0.0 0.0 xyz
      dof rx ry rz
   end
   begin
      id 29
      name RightFoot
      direction 0.000000 -0.258819 0.965926
      length 5.128852
      axis 15.0 0.0 0.0 xyz
      dof rx ry rz
   end
   begin
      id 30
      name RightToeBase
      direction 0.000000 0.000000 1.000000
      length 2.952750
      axis 0.0 0.0 0.0 xyz
      dof rx ry rz
   end
:hierarchy
   begin
      root Spine_dum LeftUpLeg_dum RightUpLeg_dum
      Spine_dum Spine
      LeftUpLeg_dum LeftUpLeg
      RightUpLeg_dum RightUpLeg
      Spine Spine_dum1 Spine_dum2 Spine_dum3
      Spine_dum1 Head
      Spine_dum2 LeftShoulder
      Spine_dum3 RightShoulder
      LeftShoulder LeftArm
      LeftArm LeftForeArm
      LeftForeArm LeftHand
      LeftHand LeftHand_dum1 LeftHand_dum2
      LeftHand_dum1 LeftHandThumb1
      RightShoulder RightArm
      RightArm RightForeArm
      RightForeArm RightHand
      RightHand RightHand_dum1 RightHand_dum2
      RightHand_dum1 RightHandThumb1
      LeftUpLeg LeftLeg
      LeftLeg LeftFoot
      LeftFoot LeftToeBase
      RightUpLeg RightLeg
      RightLeg RightFoot
      RightFoot RightToeBase
   end

# File created by Blade
# Date/Time:  Tue Jan 27 19:18:41 2015
# Frame Rate: 120.000 fps
#------------------------------------------------------
:FULLY-SPECIFIED
:DEGREES
390
root 5.153537 32.271820 1.309571 0.234931 31.914833 5.118151
Spine -1.819530 29.424144 -2.598632
Head 0.548768 -42.059868 -3.011886
LeftShoulder -6.555257 -8.946964 21.380511
LeftArm -3.350774 43.423350 -101.456747
LeftForeArm 6.650649 -0.000000 12.655688
LeftHand 10.505328 -0.000000 -6.384165
LeftHandThumb1 -26.253704 0.000000 33.147579
RightShoulder -4.690813 31.138964 -54.155460
RightArm 70.666636 14.980083 112.390915
RightForeArm 23.834237 -0.000000 98.703378
RightHand 23.646083 -0.000000 -2.956725
RightHandThumb1 -24.326973 -0.000000 -32.862282
LeftUpLeg 4.775876 -18.879140 -5.352950
LeftLeg 3.289280 -0.000000 -0.000000
LeftFoot -10.232938 2.872166 -19.812121
LeftToeBase 17.894196 -0.000000 -0.000000
RightUpLeg 15.662648 -29.422545 -6.080218
RightLeg -2.878482 -0.000000 0.000000
RightFoot -17.843499 -20.495338 19.943827
RightToeBase 9.108121 -0.000000 -0.000000
391
root 5.153277 32.271225 1.311228 0.241153 31.911372 5.125481
Spine -1.821542 29.426199 -2.598492
Head 0.575540 -42.045077 -3.004889
LeftShoulder -6.550969 -8.952699 21.381765
LeftArm -3.373838 43.463972 -101.515948
LeftForeArm 6.668693 -0.000000 12.708353
LeftHand 10.492966 -0.000000 -6.301052
LeftHandThumb1 -26.253704 0.000000 33.147579
RightShoulder -4.667453 31.079249 -54.150818
RightArm 70.680679 15.024794 112.355659
RightForeArm 23.891832 -0.000000 98.732079
RightHand 23.648248 0.000000 -3.013083
RightHandThumb1 -24.326973 -0.000000 -32.862282
LeftUpLeg 4.781487 -18.887283 -5.357210
LeftLeg 3.286448 -0.000000 -0.000000
LeftFoot -10.256587 2.860741 -19.884456
LeftToeBase 18.001185 -0.000000 -0.000000
RightUpLeg 15.664019 -29.426760 -6.082753
RightLeg -2.887285 -0.000000 0.000000
RightFoot -17.836119 -20.511236 19.920327
RightToeBase 9.066047 -0.000000 -0.000000
392
root 5.152631 32.271369 1.313002 0.244280 31.907905 5.130953
Spine -1.821293 29.418887 -2.597709
Head 0.601410 -42.013656 -2.999059
LeftShoulder -6.561835 -8.960238 21.377888
LeftArm -3.391730 43.497736 -101.560258
LeftForeArm 6.663056 -0.000000 12.755481
LeftHand 10.516481 -0.000000 -6.459222
LeftHandThumb1 -26.253704 0.000000 33.147579
RightShoulder -4.638149 30.955134 -54.118423
RightArm 70.763083 15.038930 112.318741
RightForeArm 23.800912 -0.000000 98.735116
RightHand 23.463279 -0.000000 -2.883842
RightHandThumb1 -24.326973 -0.000000 -32.862282
LeftUpLeg 4.786724 -18.857375 -5.357716
LeftLeg 3.269065 -0.000000 -0.000000
LeftFoot -10.234693 2.854089 -19.867619
LeftToeBase 18.034076 -0.000000 -0.000000
RightUpLeg 15.662265 -29.427755 -6.084109
RightLeg -2.881822 -0.000000 0.000000
RightFoot -17.842617 -20.524010 19.911001
RightToeBase 9.079650 -0.000000 -0.000000
393
root 5.151311 32.271270 1.315318 0.244699 31.900709 5.127919
Spine -1.821811 29.429752 -2.595861
Head 0.604739 -42.004398 -2.967486
LeftShoulder -6.566365 -8.983920 21.380560
LeftArm -3.419417 43.508550 -101.611010
LeftForeArm 6.656603 -0.000000 12.805963
LeftHand 10.495064 -0.000000 -6.479520
LeftHandThumb1 -26.253704 0.000000 33.147579
RightShoulder -4.625010 30.856580 -54.079072
RightArm 70.833092 15.053854 112.285248
RightForeArm 23.725773 0.000000 98.751529
RightHand 23.455936 -0.000000 -2.926315
RightHandThumb1 -24.326973 -0.000000 -32.862282
LeftUpLeg 4.793410 -18.863217 -5.353502
LeftLeg 3.264729 -0.000000 -0.000000
LeftFoot -10.227044 2.880383 -19.837398
LeftToeBase 17.831906 -0.000000 -0.000000
RightUpLeg 15.663036 -29.419110 -6.073271
RightLeg -2.891087 -0.000000 0.000000
RightFoot -17.826215 -20.544506 19.872784
RightToeBase 9.059391 -0.000000 -0.000000
394
root 5.151035 32.270907 1.316700 0.248723 31.900016 5.132873
Spine -1.817111 29.426330 -2.592607
Head 0.614221 -42.003447 -2.970794
LeftShoulder -6.575979 -8.996404 21.370822
LeftArm -3.446031 43.519865 -101.649049
LeftForeArm 6.687625 0.000000 12.873025
LeftHand 10.482177 -0.000000 -6.427998
LeftHandThumb1 -26.253704 0.000000 33.147579
RightShoulder -4.626802 30.807394 -54.075160
RightArm 70.854730 15.091176 112.299724
RightForeArm 23.636931 -0.000000 98.774078
RightHand 23.463293 -0.000000 -2.866497
RightHandThumb1 -24.326973 -0.000000 -32.862282
LeftUpLeg 4.795683 -18.862379 -5.356076
LeftLeg 3.258091 -0.000000 -0.000000
LeftFoot -10.235548 2.869773 -19.870102
LeftToeBase 17.940941 -0.000000 -0.000000
RightUpLeg 15.661200 -29.407889 -6.069646
RightLeg -2.893361 -0.000000 0.000000
RightFoot -17.833433 -20.562700 19.859604
RightToeBase 9.071383 -0.000000 -0.000000
395
root 5.150680 32.271139 1.318765 0.241511 31.891351 5.133615
Spine -1.805286 29.429294 -2.579606
Head 0.625719 -41.977660 -2.968113
LeftShoulder -6.567214 -9.002023 21.349545
LeftArm -3.454597 43.529069 -101.672032
LeftForeArm 6.656877 -0.000000 12.920179
LeftHand 10.484202 -0.000000 -6.307147
LeftHandThumb1 -26.253704 0.000000 33.147579
RightShoulder -4.627771 30.708318 -54.049991
RightArm 70.939372 15.076612 112.339983
RightForeArm 23.545192 -0.000000 98.781678
RightHand 23.529120 -0.000000 -2.841105
RightHandThumb1 -24.326973 -0.000000 -32.862282
LeftUpLeg 4.815591 -18.856747 -5.357700
LeftLeg 3.254613 -0.000000 -0.000000
LeftFoot -10.230536 2.848851 -19.843320
LeftToeBase 17.873733 -0.000000 -0.000000
RightUpLeg 15.659554 -29.403835 -6.069407
RightLeg -2.877128 -0.000000 0.000000
RightFoot -17.837761 -20.579493 19.850514
RightToeBase 9.108640 -0.000000 -0.000000
